<svg width="43" height="43" viewBox="0 0 43 43" fill="none" xmlns="http://www.w3.org/2000/svg">
<g clip-path="url(#clip0_1_6122)">
<path d="M36.9832 30.4097C36.4067 31.7414 35.7244 32.9672 34.9338 34.0942C33.8562 35.6307 32.9739 36.6941 32.2939 37.2847C31.2399 38.2541 30.1105 38.7505 28.9011 38.7788C28.0329 38.7788 26.9859 38.5317 25.7671 38.0306C24.5443 37.5318 23.4206 37.2847 22.3931 37.2847C21.3155 37.2847 20.1598 37.5318 18.9236 38.0306C17.6855 38.5317 16.6882 38.7929 15.9256 38.8188C14.7659 38.8682 13.6099 38.3576 12.4561 37.2847C11.7197 36.6424 10.7985 35.5412 9.69502 33.9813C8.51106 32.3155 7.53769 30.3838 6.77513 28.1815C5.95845 25.8028 5.54906 23.4993 5.54906 21.2693C5.54906 18.7148 6.10104 16.5116 7.20664 14.6653C8.07555 13.1823 9.23151 12.0124 10.6783 11.1536C12.125 10.2948 13.6883 9.85721 15.3718 9.82921C16.2929 9.82921 17.5008 10.1141 19.002 10.6741C20.4989 11.236 21.46 11.5209 21.8814 11.5209C22.1964 11.5209 23.2642 11.1878 25.0742 10.5235C26.7859 9.90756 28.2306 9.65251 29.4141 9.75298C32.621 10.0118 35.0303 11.276 36.6326 13.5536C33.7645 15.2914 32.3457 17.7254 32.3739 20.8479C32.3998 23.28 33.2821 25.304 35.0162 26.911C35.802 27.6568 36.6797 28.2333 37.6561 28.6427C37.4443 29.2568 37.2208 29.845 36.9832 30.4097ZM29.6282 1.46716C29.6282 3.37346 28.9317 5.15338 27.5435 6.80085C25.8683 8.75937 23.842 9.89109 21.6447 9.71251C21.6167 9.48381 21.6005 9.24312 21.6005 8.99018C21.6005 7.16013 22.3971 5.20161 23.8119 3.60026C24.5182 2.78946 25.4166 2.1153 26.5059 1.5775C27.5929 1.04773 28.6211 0.75476 29.5882 0.70459C29.6164 0.959433 29.6282 1.21429 29.6282 1.46713V1.46716Z" fill="white"/>
</g>
<defs>
<clipPath id="clip0_1_6122">
<rect width="41.5827" height="41.5827" fill="white" transform="translate(0.871094 0.704102)"/>
</clipPath>
</defs>
</svg>
