<svg width="196" height="166" viewBox="0 0 196 166" fill="none" xmlns="http://www.w3.org/2000/svg">
<circle cx="114" cy="83.4961" r="82" fill="#F0F5D0"/>
<path d="M2 21.3958C2 21.3958 11.8715 0.970028 40.828 1.78706C69.7844 2.60409 86.8951 39.3703 117.826 40.1874C148.757 41.0045 160.602 21.3958 160.602 21.3958" stroke="#94A9AC" stroke-width="2.6"/>
<path d="M2 56.6406C2 56.6406 11.8715 36.2149 40.828 37.0319C69.7844 37.849 86.8951 74.6152 117.826 75.4323C148.757 76.2494 160.602 56.6406 160.602 56.6406" stroke="#94A9AC" stroke-width="2.6"/>
<path d="M2 91.8857C2 91.8857 11.8715 71.46 40.828 72.277C69.7844 73.0941 86.8951 109.86 117.826 110.677C148.757 111.494 160.602 91.8857 160.602 91.8857" stroke="#94A9AC" stroke-width="2.6"/>
</svg>
