<svg width="42" height="43" viewBox="0 0 42 43" fill="none" xmlns="http://www.w3.org/2000/svg">
<g clip-path="url(#clip0_1_6119)">
<path d="M41.5822 21.4954C41.5822 10.0127 32.2736 0.704102 20.7909 0.704102C9.3081 0.704102 -0.000488281 10.0127 -0.000488281 21.4954C-0.000488281 31.8728 7.60256 40.4744 17.5422 42.0342V27.5054H12.2632V21.4954H17.5422V16.9149C17.5422 11.704 20.6463 8.82572 25.3954 8.82572C27.6695 8.82572 30.0495 9.2318 30.0495 9.2318V14.3484H27.4278C24.8452 14.3484 24.0395 15.9512 24.0395 17.5971V21.4954H29.8058L28.884 27.5054H24.0395V42.0342C33.9791 40.4744 41.5822 31.8728 41.5822 21.4954Z" fill="#1877F2"/>
<path d="M28.8841 27.5054L29.8059 21.4954H24.0395V17.597C24.0395 15.9528 24.8452 14.3484 27.4279 14.3484H30.0495V9.23176C30.0495 9.23176 27.6703 8.82568 25.3954 8.82568C20.6463 8.82568 17.5422 11.704 17.5422 16.9148V21.4954H12.2632V27.5054H17.5422V42.0342C19.6949 42.3709 21.8869 42.3709 24.0395 42.0342V27.5054H28.8841Z" fill="white"/>
</g>
<defs>
<clipPath id="clip0_1_6119">
<rect width="41.5827" height="41.5827" fill="white" transform="translate(-0.000488281 0.704102)"/>
</clipPath>
</defs>
</svg>
