<svg width="42" height="43" viewBox="0 0 42 43" fill="none" xmlns="http://www.w3.org/2000/svg">
<g clip-path="url(#clip0_1_6121)">
<path d="M41.3418 21.9742C41.3418 20.5609 41.2272 19.1399 40.9828 17.7495H21.3717V25.7559H32.602C32.136 28.3381 30.6386 30.6223 28.446 32.0739V37.2688H35.146C39.0805 33.6476 41.3418 28.2999 41.3418 21.9742Z" fill="#4285F4"/>
<path d="M21.3717 42.2882C26.9792 42.2882 31.7081 40.4471 35.1536 37.269L28.4536 32.074C26.5895 33.3422 24.1831 34.0603 21.3793 34.0603C15.9551 34.0603 11.3561 30.4009 9.70589 25.481H2.79199V30.8364C6.32152 37.8572 13.5104 42.2882 21.3717 42.2882Z" fill="#34A853"/>
<path d="M9.69832 25.481C8.8274 22.8988 8.8274 20.1026 9.69832 17.5204V12.165H2.79207C-0.156844 18.0399 -0.156844 24.9615 2.79207 30.8364L9.69832 25.481Z" fill="#FBBC04"/>
<path d="M21.3717 8.93342C24.3358 8.88758 27.2007 10.003 29.3475 12.0504L35.2835 6.11438C31.5248 2.58486 26.5361 0.644385 21.3717 0.705503C13.5104 0.705503 6.32152 5.13651 2.79199 12.165L9.69825 17.5204C11.3408 12.5928 15.9475 8.93342 21.3717 8.93342Z" fill="#EA4335"/>
</g>
<defs>
<clipPath id="clip0_1_6121">
<rect width="41.5827" height="41.5827" fill="white" transform="translate(0.164551 0.704102)"/>
</clipPath>
</defs>
</svg>
