<svg width="1360" height="543" viewBox="0 0 1360 543" fill="none" xmlns="http://www.w3.org/2000/svg">
<g opacity="0.4">
<path d="M87.9785 301.496L87.9785 461.851L263.936 461.851L87.9785 301.496Z" fill="#F0F5D0"/>
<circle cx="1278" cy="301.496" r="82" fill="#F0F5D0"/>
<path d="M1166 239.396C1166 239.396 1175.87 218.97 1204.83 219.787C1233.78 220.604 1250.9 257.37 1281.83 258.187C1312.76 259.005 1324.6 239.396 1324.6 239.396" stroke="#94A9AC" stroke-width="2.6"/>
<path d="M1166 274.641C1166 274.641 1175.87 254.215 1204.83 255.032C1233.78 255.849 1250.9 292.615 1281.83 293.432C1312.76 294.249 1324.6 274.641 1324.6 274.641" stroke="#94A9AC" stroke-width="2.6"/>
<path d="M1166 309.886C1166 309.886 1175.87 289.46 1204.83 290.277C1233.78 291.094 1250.9 327.86 1281.83 328.677C1312.76 329.494 1324.6 309.886 1324.6 309.886" stroke="#94A9AC" stroke-width="2.6"/>
<path d="M325 60.9961C325 49.0303 321.452 37.3333 314.804 27.3841C308.156 17.4349 298.707 9.68048 287.652 5.10138C276.597 0.52228 264.433 -0.675822 252.697 1.65858C240.961 3.99299 230.181 9.75506 221.72 18.2161C213.259 26.6772 207.497 37.4573 205.162 49.1931C202.828 60.929 204.026 73.0935 208.605 84.1484C213.184 95.2034 220.939 104.652 230.888 111.3C240.837 117.948 252.534 121.496 264.5 121.496L264.5 60.9961L325 60.9961Z" fill="#F0F5D0"/>
<ellipse cx="268.653" cy="59.8305" rx="1.4664" ry="1.44216" transform="rotate(-90 268.653 59.8305)" fill="#94A9AC"/>
<ellipse cx="276.729" cy="59.8305" rx="1.4664" ry="1.44216" transform="rotate(-90 276.729 59.8305)" fill="#94A9AC"/>
<ellipse cx="284.806" cy="59.8305" rx="1.4664" ry="1.44216" transform="rotate(-90 284.806 59.8305)" fill="#94A9AC"/>
<ellipse cx="292.882" cy="59.8305" rx="1.4664" ry="1.44216" transform="rotate(-90 292.882 59.8305)" fill="#94A9AC"/>
<ellipse cx="268.653" cy="51.6183" rx="1.4664" ry="1.44216" transform="rotate(-90 268.653 51.6183)" fill="#94A9AC"/>
<ellipse cx="276.729" cy="51.6183" rx="1.4664" ry="1.44216" transform="rotate(-90 276.729 51.6183)" fill="#94A9AC"/>
<ellipse cx="284.806" cy="51.6183" rx="1.4664" ry="1.44216" transform="rotate(-90 284.806 51.6183)" fill="#94A9AC"/>
<ellipse cx="292.882" cy="51.6183" rx="1.4664" ry="1.44216" transform="rotate(-90 292.882 51.6183)" fill="#94A9AC"/>
<ellipse cx="268.653" cy="43.4066" rx="1.4664" ry="1.44216" transform="rotate(-90 268.653 43.4066)" fill="#94A9AC"/>
<ellipse cx="276.729" cy="43.4066" rx="1.4664" ry="1.44216" transform="rotate(-90 276.729 43.4066)" fill="#94A9AC"/>
<ellipse cx="284.806" cy="43.4066" rx="1.4664" ry="1.44216" transform="rotate(-90 284.806 43.4066)" fill="#94A9AC"/>
<ellipse cx="292.882" cy="43.4069" rx="1.4664" ry="1.44216" transform="rotate(-90 292.882 43.4069)" fill="#94A9AC"/>
<ellipse cx="268.653" cy="35.1947" rx="1.4664" ry="1.44216" transform="rotate(-90 268.653 35.1947)" fill="#94A9AC"/>
<ellipse cx="276.729" cy="35.1947" rx="1.4664" ry="1.44216" transform="rotate(-90 276.729 35.1947)" fill="#94A9AC"/>
<ellipse cx="284.806" cy="35.1947" rx="1.4664" ry="1.44216" transform="rotate(-90 284.806 35.1947)" fill="#94A9AC"/>
<ellipse cx="292.882" cy="35.1947" rx="1.4664" ry="1.44216" transform="rotate(-90 292.882 35.1947)" fill="#94A9AC"/>
<ellipse cx="268.653" cy="91.9098" rx="1.4664" ry="1.44216" transform="rotate(-90 268.653 91.9098)" fill="#94A9AC"/>
<ellipse cx="276.73" cy="91.9101" rx="1.4664" ry="1.44216" transform="rotate(-90 276.73 91.9101)" fill="#94A9AC"/>
<ellipse cx="284.806" cy="91.9101" rx="1.4664" ry="1.44216" transform="rotate(-90 284.806 91.9101)" fill="#94A9AC"/>
<ellipse cx="292.882" cy="91.9101" rx="1.4664" ry="1.44216" transform="rotate(-90 292.882 91.9101)" fill="#94A9AC"/>
<ellipse cx="268.654" cy="83.6979" rx="1.4664" ry="1.44216" transform="rotate(-90 268.654 83.6979)" fill="#94A9AC"/>
<ellipse cx="276.73" cy="83.6979" rx="1.4664" ry="1.44216" transform="rotate(-90 276.73 83.6979)" fill="#94A9AC"/>
<ellipse cx="284.806" cy="83.6979" rx="1.4664" ry="1.44216" transform="rotate(-90 284.806 83.6979)" fill="#94A9AC"/>
<ellipse cx="292.882" cy="83.6979" rx="1.4664" ry="1.44216" transform="rotate(-90 292.882 83.6979)" fill="#94A9AC"/>
<ellipse cx="268.653" cy="75.4862" rx="1.4664" ry="1.44216" transform="rotate(-90 268.653 75.4862)" fill="#94A9AC"/>
<ellipse cx="276.73" cy="75.4862" rx="1.4664" ry="1.44216" transform="rotate(-90 276.73 75.4862)" fill="#94A9AC"/>
<ellipse cx="284.806" cy="75.4862" rx="1.4664" ry="1.44216" transform="rotate(-90 284.806 75.4862)" fill="#94A9AC"/>
<ellipse cx="292.882" cy="75.4865" rx="1.4664" ry="1.44216" transform="rotate(-90 292.882 75.4865)" fill="#94A9AC"/>
<ellipse cx="268.654" cy="67.2746" rx="1.4664" ry="1.44216" transform="rotate(-90 268.654 67.2746)" fill="#94A9AC"/>
<ellipse cx="276.73" cy="67.2746" rx="1.4664" ry="1.44216" transform="rotate(-90 276.73 67.2746)" fill="#94A9AC"/>
<ellipse cx="284.806" cy="67.2746" rx="1.4664" ry="1.44216" transform="rotate(-90 284.806 67.2746)" fill="#94A9AC"/>
<ellipse cx="292.882" cy="67.2746" rx="1.4664" ry="1.44216" transform="rotate(-90 292.882 67.2746)" fill="#94A9AC"/>
<ellipse cx="236.118" cy="59.8305" rx="1.4664" ry="1.44216" transform="rotate(-90 236.118 59.8305)" fill="#94A9AC"/>
<ellipse cx="244.194" cy="59.8305" rx="1.4664" ry="1.44216" transform="rotate(-90 244.194 59.8305)" fill="#94A9AC"/>
<ellipse cx="252.27" cy="59.8305" rx="1.4664" ry="1.44216" transform="rotate(-90 252.27 59.8305)" fill="#94A9AC"/>
<ellipse cx="260.347" cy="59.8305" rx="1.4664" ry="1.44216" transform="rotate(-90 260.347 59.8305)" fill="#94A9AC"/>
<ellipse cx="236.118" cy="51.6183" rx="1.4664" ry="1.44216" transform="rotate(-90 236.118 51.6183)" fill="#94A9AC"/>
<ellipse cx="244.194" cy="51.6183" rx="1.4664" ry="1.44216" transform="rotate(-90 244.194 51.6183)" fill="#94A9AC"/>
<ellipse cx="252.27" cy="51.6183" rx="1.4664" ry="1.44216" transform="rotate(-90 252.27 51.6183)" fill="#94A9AC"/>
<ellipse cx="260.347" cy="51.6183" rx="1.4664" ry="1.44216" transform="rotate(-90 260.347 51.6183)" fill="#94A9AC"/>
<ellipse cx="236.118" cy="43.4069" rx="1.4664" ry="1.44216" transform="rotate(-90 236.118 43.4069)" fill="#94A9AC"/>
<ellipse cx="244.194" cy="43.4066" rx="1.4664" ry="1.44216" transform="rotate(-90 244.194 43.4066)" fill="#94A9AC"/>
<ellipse cx="252.27" cy="43.4066" rx="1.4664" ry="1.44216" transform="rotate(-90 252.27 43.4066)" fill="#94A9AC"/>
<ellipse cx="260.347" cy="43.4069" rx="1.4664" ry="1.44216" transform="rotate(-90 260.347 43.4069)" fill="#94A9AC"/>
<ellipse cx="236.118" cy="35.1947" rx="1.4664" ry="1.44216" transform="rotate(-90 236.118 35.1947)" fill="#94A9AC"/>
<ellipse cx="244.194" cy="35.1947" rx="1.4664" ry="1.44216" transform="rotate(-90 244.194 35.1947)" fill="#94A9AC"/>
<ellipse cx="252.27" cy="35.1947" rx="1.4664" ry="1.44216" transform="rotate(-90 252.27 35.1947)" fill="#94A9AC"/>
<ellipse cx="260.347" cy="35.1947" rx="1.4664" ry="1.44216" transform="rotate(-90 260.347 35.1947)" fill="#94A9AC"/>
<ellipse cx="236.118" cy="91.9098" rx="1.4664" ry="1.44216" transform="rotate(-90 236.118 91.9098)" fill="#94A9AC"/>
<ellipse cx="244.194" cy="91.9101" rx="1.4664" ry="1.44216" transform="rotate(-90 244.194 91.9101)" fill="#94A9AC"/>
<ellipse cx="252.27" cy="91.9101" rx="1.4664" ry="1.44216" transform="rotate(-90 252.27 91.9101)" fill="#94A9AC"/>
<ellipse cx="260.347" cy="91.9101" rx="1.4664" ry="1.44216" transform="rotate(-90 260.347 91.9101)" fill="#94A9AC"/>
<ellipse cx="236.118" cy="83.6979" rx="1.4664" ry="1.44216" transform="rotate(-90 236.118 83.6979)" fill="#94A9AC"/>
<ellipse cx="244.194" cy="83.6979" rx="1.4664" ry="1.44216" transform="rotate(-90 244.194 83.6979)" fill="#94A9AC"/>
<ellipse cx="252.27" cy="83.6979" rx="1.4664" ry="1.44216" transform="rotate(-90 252.27 83.6979)" fill="#94A9AC"/>
<ellipse cx="260.347" cy="83.6979" rx="1.4664" ry="1.44216" transform="rotate(-90 260.347 83.6979)" fill="#94A9AC"/>
<ellipse cx="236.118" cy="75.4862" rx="1.4664" ry="1.44216" transform="rotate(-90 236.118 75.4862)" fill="#94A9AC"/>
<ellipse cx="244.194" cy="75.4862" rx="1.4664" ry="1.44216" transform="rotate(-90 244.194 75.4862)" fill="#94A9AC"/>
<ellipse cx="252.27" cy="75.4862" rx="1.4664" ry="1.44216" transform="rotate(-90 252.27 75.4862)" fill="#94A9AC"/>
<ellipse cx="260.347" cy="75.4865" rx="1.4664" ry="1.44216" transform="rotate(-90 260.347 75.4865)" fill="#94A9AC"/>
<ellipse cx="236.118" cy="67.2746" rx="1.4664" ry="1.44216" transform="rotate(-90 236.118 67.2746)" fill="#94A9AC"/>
<ellipse cx="244.194" cy="67.2746" rx="1.4664" ry="1.44216" transform="rotate(-90 244.194 67.2746)" fill="#94A9AC"/>
<ellipse cx="252.27" cy="67.2746" rx="1.4664" ry="1.44216" transform="rotate(-90 252.27 67.2746)" fill="#94A9AC"/>
<ellipse cx="260.347" cy="67.2746" rx="1.4664" ry="1.44216" transform="rotate(-90 260.347 67.2746)" fill="#94A9AC"/>
</g>
</svg>
