<svg width="158" height="50" viewBox="0 0 158 50" fill="none" xmlns="http://www.w3.org/2000/svg">
<path d="M19.6924 16.0997C19.6924 12.2706 22.7965 9.1665 26.6256 9.1665H35.2921C36.2494 9.1665 37.0254 9.94253 37.0254 10.8998V19.5663C37.0254 23.3954 33.9213 26.4995 30.0922 26.4995H21.4257C20.4685 26.4995 19.6924 25.7235 19.6924 24.7662V16.0997Z" fill="#009948"/>
<path d="M19.6924 35.2701C19.6924 31.441 22.7965 28.3369 26.6256 28.3369H35.2921C36.2494 28.3369 37.0254 29.1129 37.0254 30.0702V38.7367C37.0254 42.5658 33.9213 45.6699 30.0922 45.6699H21.4257C20.4685 45.6699 19.6924 44.8939 19.6924 43.9366V35.2701Z" fill="#009948"/>
<path d="M18.0978 7.5372C18.0978 3.7081 14.9937 0.604004 11.1646 0.604004H2.49807C1.5408 0.604004 0.764771 1.38003 0.764771 2.3373V11.0038C0.764771 14.8329 3.86887 17.937 7.69797 17.937H16.3645C17.3217 17.937 18.0978 17.161 18.0978 16.2037V7.5372Z" fill="#009948"/>
<path d="M18.0978 26.6036C18.0978 22.7745 14.9937 19.6704 11.1646 19.6704H2.49807C1.5408 19.6704 0.764771 20.4464 0.764771 21.4037V30.0702C0.764771 33.8993 3.86887 37.0034 7.69797 37.0034H16.3645C17.3217 37.0034 18.0978 36.2274 18.0978 35.2701V26.6036Z" fill="#009948"/>
<path d="M48.0613 1.40446V18.1797H52.6688V8.44554C52.6688 7.62354 52.7878 6.96377 53.0257 6.46625C53.2637 5.94709 53.5449 5.55772 53.8694 5.29814C54.2155 5.01693 54.5616 4.83306 54.9077 4.74654C55.2754 4.63838 55.5674 4.5843 55.7838 4.5843C56.5192 4.5843 57.0708 4.71409 57.4386 4.97367C57.8279 5.21162 58.0983 5.53609 58.2498 5.94709C58.4228 6.35809 58.5201 6.81235 58.5418 7.30988C58.5634 7.78577 58.5742 8.27248 58.5742 8.77001V18.1797H63.1818V8.8349C63.1818 8.31575 63.2142 7.8074 63.2791 7.30988C63.3656 6.79072 63.517 6.33646 63.7334 5.94709C63.9713 5.53609 64.285 5.21162 64.6743 4.97367C65.0853 4.71409 65.6153 4.5843 66.2642 4.5843C66.9132 4.5843 67.4215 4.69246 67.7893 4.90877C68.1786 5.12509 68.4707 5.41712 68.6654 5.78485C68.86 6.15259 68.979 6.58522 69.0223 7.08275C69.0655 7.58027 69.0872 8.11025 69.0872 8.67267V18.1797H73.6947V6.95296C73.6947 5.87138 73.5433 4.95204 73.2404 4.19493C72.9376 3.41619 72.5158 2.78888 71.975 2.31298C71.4342 1.83709 70.7852 1.49098 70.0281 1.27467C69.271 1.05835 68.449 0.950195 67.5621 0.950195C66.394 0.950195 65.3774 1.23141 64.5121 1.79383C63.6685 2.35625 62.9979 3.00519 62.5004 3.74067C62.0461 2.70235 61.3755 1.97769 60.4886 1.56669C59.6234 1.1557 58.6608 0.950195 57.6008 0.950195C56.4976 0.950195 55.5134 1.18814 54.6481 1.66404C53.8045 2.13993 53.0798 2.81051 52.4741 3.67577H52.4092V1.40446H48.0613Z" fill="white"/>
<path d="M75.1954 6.56359C75.2603 5.48201 75.5307 4.5843 76.0066 3.87046C76.4825 3.15662 77.0881 2.58338 77.8236 2.15075C78.5591 1.71812 79.3811 1.41527 80.2896 1.24222C81.2198 1.04754 82.1499 0.950195 83.0801 0.950195C83.9237 0.950195 84.7782 1.01509 85.6434 1.14488C86.5087 1.25304 87.2983 1.48017 88.0121 1.82627C88.7259 2.17238 89.31 2.65909 89.7643 3.28641C90.2185 3.89209 90.4456 4.70327 90.4456 5.71996V14.4483C90.4456 15.2054 90.4889 15.9301 90.5754 16.6223C90.662 17.3145 90.8134 17.8336 91.0297 18.1797H86.3573C86.2707 17.9202 86.195 17.6606 86.1301 17.401C86.0869 17.1198 86.0544 16.8386 86.0328 16.5574C85.2973 17.3145 84.4321 17.8445 83.437 18.1473C82.442 18.4501 81.4253 18.6016 80.387 18.6016C79.5866 18.6016 78.8403 18.5042 78.1481 18.3095C77.4559 18.1148 76.8502 17.812 76.331 17.401C75.8119 16.99 75.4009 16.4708 75.098 15.8435C74.8168 15.2162 74.6762 14.4699 74.6762 13.6047C74.6762 12.6529 74.8385 11.8741 75.1629 11.2685C75.509 10.6411 75.9417 10.1436 76.4608 9.77588C77.0016 9.40814 77.6073 9.13775 78.2779 8.96469C78.9701 8.77001 79.6623 8.61859 80.3545 8.51043C81.0467 8.40227 81.7281 8.31575 82.3987 8.25085C83.0693 8.18596 83.6641 8.08861 84.1833 7.95882C84.7025 7.82904 85.1135 7.64517 85.4163 7.40722C85.7191 7.14764 85.8597 6.7799 85.8381 6.30401C85.8381 5.80648 85.7516 5.41712 85.5785 5.13591C85.4271 4.83306 85.2108 4.60593 84.9296 4.45451C84.67 4.28146 84.3564 4.1733 83.9886 4.13004C83.6425 4.06514 83.264 4.03269 82.853 4.03269C81.9444 4.03269 81.2306 4.22738 80.7114 4.61675C80.1923 5.00612 79.8894 5.65506 79.8029 6.56359H75.1954ZM85.8381 9.97056C85.6434 10.1436 85.3947 10.2842 85.0918 10.3924C84.8106 10.4789 84.497 10.5546 84.1509 10.6195C83.8264 10.6844 83.4803 10.7385 83.1125 10.7817C82.7448 10.825 82.3771 10.8791 82.0093 10.944C81.6632 11.0089 81.3171 11.0954 80.971 11.2036C80.6465 11.3117 80.3545 11.4631 80.0949 11.6578C79.857 11.8309 79.6623 12.058 79.5109 12.3392C79.3595 12.6204 79.2838 12.9774 79.2838 13.41C79.2838 13.821 79.3595 14.1671 79.5109 14.4483C79.6623 14.7295 79.8678 14.9566 80.1274 15.1297C80.387 15.2811 80.6898 15.3893 81.0359 15.4542C81.382 15.5191 81.7389 15.5515 82.1067 15.5515C83.0152 15.5515 83.7182 15.4001 84.2158 15.0972C84.7133 14.7944 85.081 14.4375 85.319 14.0265C85.5569 13.5939 85.6975 13.1612 85.7408 12.7286C85.8057 12.296 85.8381 11.9499 85.8381 11.6903V9.97056Z" fill="white"/>
<path d="M91.8804 6.56359C91.9453 5.48201 92.2157 4.5843 92.6916 3.87046C93.1675 3.15662 93.7732 2.58338 94.5087 2.15075C95.2441 1.71812 96.0661 1.41527 96.9747 1.24222C97.9048 1.04754 98.835 0.950195 99.7651 0.950195C100.609 0.950195 101.463 1.01509 102.328 1.14488C103.194 1.25304 103.983 1.48017 104.697 1.82627C105.411 2.17238 105.995 2.65909 106.449 3.28641C106.904 3.89209 107.131 4.70327 107.131 5.71996V14.4483C107.131 15.2054 107.174 15.9301 107.26 16.6223C107.347 17.3145 107.498 17.8336 107.715 18.1797H103.042C102.956 17.9202 102.88 17.6606 102.815 17.401C102.772 17.1198 102.739 16.8386 102.718 16.5574C101.982 17.3145 101.117 17.8445 100.122 18.1473C99.127 18.4501 98.1103 18.6016 97.072 18.6016C96.2716 18.6016 95.5253 18.5042 94.8331 18.3095C94.1409 18.1148 93.5352 17.812 93.0161 17.401C92.4969 16.99 92.0859 16.4708 91.7831 15.8435C91.5019 15.2162 91.3613 14.4699 91.3613 13.6047C91.3613 12.6529 91.5235 11.8741 91.848 11.2685C92.1941 10.6411 92.6267 10.1436 93.1459 9.77588C93.6867 9.40814 94.2923 9.13775 94.9629 8.96469C95.6551 8.77001 96.3473 8.61859 97.0396 8.51043C97.7318 8.40227 98.4132 8.31575 99.0837 8.25085C99.7543 8.18596 100.349 8.08861 100.868 7.95882C101.388 7.82904 101.799 7.64517 102.101 7.40722C102.404 7.14764 102.545 6.7799 102.523 6.30401C102.523 5.80648 102.437 5.41712 102.264 5.13591C102.112 4.83306 101.896 4.60593 101.615 4.45451C101.355 4.28146 101.041 4.1733 100.674 4.13004C100.328 4.06514 99.949 4.03269 99.538 4.03269C98.6295 4.03269 97.9156 4.22738 97.3965 4.61675C96.8773 5.00612 96.5745 5.65506 96.4879 6.56359H91.8804ZM102.523 9.97056C102.328 10.1436 102.08 10.2842 101.777 10.3924C101.496 10.4789 101.182 10.5546 100.836 10.6195C100.511 10.6844 100.165 10.7385 99.7976 10.7817C99.4298 10.825 99.0621 10.8791 98.6944 10.944C98.3483 11.0089 98.0022 11.0954 97.6561 11.2036C97.3316 11.3117 97.0396 11.4631 96.78 11.6578C96.542 11.8309 96.3473 12.058 96.1959 12.3392C96.0445 12.6204 95.9688 12.9774 95.9688 13.41C95.9688 13.821 96.0445 14.1671 96.1959 14.4483C96.3473 14.7295 96.5528 14.9566 96.8124 15.1297C97.072 15.2811 97.3748 15.3893 97.721 15.4542C98.0671 15.5191 98.424 15.5515 98.7917 15.5515C99.7002 15.5515 100.403 15.4001 100.901 15.0972C101.398 14.7944 101.766 14.4375 102.004 14.0265C102.242 13.5939 102.383 13.1612 102.426 12.7286C102.491 12.296 102.523 11.9499 102.523 11.6903V9.97056Z" fill="white"/>
<path d="M108.76 1.40446V18.1797H113.368V9.38651C113.368 7.67762 113.649 6.45543 114.211 5.71996C114.774 4.96285 115.682 4.5843 116.937 4.5843C118.04 4.5843 118.808 4.9304 119.241 5.62261C119.673 6.29319 119.89 7.32069 119.89 8.70511V18.1797H124.497V7.86148C124.497 6.82317 124.4 5.88219 124.205 5.03856C124.032 4.1733 123.718 3.44864 123.264 2.86459C122.81 2.25891 122.183 1.79383 121.382 1.46935C120.603 1.12325 119.598 0.950195 118.365 0.950195C117.391 0.950195 116.439 1.17733 115.509 1.63159C114.579 2.06422 113.822 2.76725 113.238 3.74067H113.141V1.40446H108.76Z" fill="white"/>
<path d="M129.616 12.7286H125.236C125.279 13.8534 125.528 14.7944 125.982 15.5515C126.458 16.287 127.053 16.8818 127.767 17.3361C128.502 17.7904 129.335 18.1148 130.265 18.3095C131.196 18.5042 132.147 18.6016 133.121 18.6016C134.073 18.6016 135.003 18.5042 135.911 18.3095C136.841 18.1365 137.663 17.8228 138.377 17.3686C139.091 16.9143 139.664 16.3194 140.097 15.584C140.551 14.8268 140.778 13.8967 140.778 12.7935C140.778 12.0147 140.627 11.3658 140.324 10.8466C140.021 10.3059 139.621 9.8624 139.124 9.5163C138.626 9.14856 138.053 8.85654 137.404 8.64022C136.777 8.4239 136.128 8.24004 135.457 8.08861C134.808 7.93719 134.17 7.79659 133.543 7.6668C132.915 7.53701 132.353 7.3964 131.855 7.24498C131.379 7.07193 130.99 6.85561 130.687 6.59604C130.384 6.33646 130.233 6.00117 130.233 5.59017C130.233 5.24406 130.319 4.97367 130.493 4.77898C130.666 4.56267 130.871 4.40043 131.109 4.29227C131.369 4.18412 131.65 4.11922 131.953 4.09759C132.256 4.05433 132.537 4.03269 132.796 4.03269C133.618 4.03269 134.332 4.19493 134.938 4.5194C135.544 4.82225 135.879 5.41712 135.944 6.30401H140.324C140.238 5.26569 139.967 4.41125 139.513 3.74067C139.08 3.04846 138.529 2.49685 137.858 2.08585C137.188 1.67485 136.42 1.38283 135.554 1.20977C134.711 1.03672 133.835 0.950195 132.926 0.950195C132.018 0.950195 131.131 1.03672 130.265 1.20977C129.4 1.3612 128.621 1.64241 127.929 2.05341C127.237 2.44277 126.675 2.98356 126.242 3.67577C125.831 4.36798 125.625 5.25488 125.625 6.33646C125.625 7.07193 125.777 7.69925 126.08 8.21841C126.383 8.71593 126.783 9.13775 127.28 9.48385C127.778 9.80832 128.34 10.0787 128.968 10.295C129.616 10.4897 130.276 10.6628 130.947 10.8142C132.591 11.1603 133.867 11.5064 134.776 11.8525C135.706 12.1986 136.171 12.7178 136.171 13.41C136.171 13.821 136.073 14.1671 135.879 14.4483C135.684 14.7079 135.435 14.9242 135.133 15.0972C134.851 15.2487 134.527 15.3676 134.159 15.4542C133.813 15.5191 133.478 15.5515 133.153 15.5515C132.699 15.5515 132.256 15.4974 131.823 15.3893C131.412 15.2811 131.044 15.1189 130.72 14.9026C130.395 14.6646 130.125 14.3726 129.908 14.0265C129.714 13.6587 129.616 13.2261 129.616 12.7286Z" fill="white"/>
<path d="M141.333 6.56359C141.398 5.48201 141.669 4.5843 142.145 3.87046C142.621 3.15662 143.226 2.58338 143.962 2.15075C144.697 1.71812 145.519 1.41527 146.428 1.24222C147.358 1.04754 148.288 0.950195 149.218 0.950195C150.062 0.950195 150.916 1.01509 151.782 1.14488C152.647 1.25304 153.436 1.48017 154.15 1.82627C154.864 2.17238 155.448 2.65909 155.902 3.28641C156.357 3.89209 156.584 4.70327 156.584 5.71996V14.4483C156.584 15.2054 156.627 15.9301 156.714 16.6223C156.8 17.3145 156.951 17.8336 157.168 18.1797H152.495C152.409 17.9202 152.333 17.6606 152.268 17.401C152.225 17.1198 152.193 16.8386 152.171 16.5574C151.435 17.3145 150.57 17.8445 149.575 18.1473C148.58 18.4501 147.563 18.6016 146.525 18.6016C145.725 18.6016 144.978 18.5042 144.286 18.3095C143.594 18.1148 142.988 17.812 142.469 17.401C141.95 16.99 141.539 16.4708 141.236 15.8435C140.955 15.2162 140.814 14.4699 140.814 13.6047C140.814 12.6529 140.977 11.8741 141.301 11.2685C141.647 10.6411 142.08 10.1436 142.599 9.77588C143.14 9.40814 143.745 9.13775 144.416 8.96469C145.108 8.77001 145.8 8.61859 146.493 8.51043C147.185 8.40227 147.866 8.31575 148.537 8.25085C149.207 8.18596 149.802 8.08861 150.321 7.95882C150.841 7.82904 151.252 7.64517 151.554 7.40722C151.857 7.14764 151.998 6.7799 151.976 6.30401C151.976 5.80648 151.89 5.41712 151.717 5.13591C151.565 4.83306 151.349 4.60593 151.068 4.45451C150.808 4.28146 150.494 4.1733 150.127 4.13004C149.781 4.06514 149.402 4.03269 148.991 4.03269C148.083 4.03269 147.369 4.22738 146.85 4.61675C146.33 5.00612 146.028 5.65506 145.941 6.56359H141.333ZM151.976 9.97056C151.782 10.1436 151.533 10.2842 151.23 10.3924C150.949 10.4789 150.635 10.5546 150.289 10.6195C149.965 10.6844 149.618 10.7385 149.251 10.7817C148.883 10.825 148.515 10.8791 148.147 10.944C147.801 11.0089 147.455 11.0954 147.109 11.2036C146.785 11.3117 146.493 11.4631 146.233 11.6578C145.995 11.8309 145.8 12.058 145.649 12.3392C145.498 12.6204 145.422 12.9774 145.422 13.41C145.422 13.821 145.498 14.1671 145.649 14.4483C145.8 14.7295 146.006 14.9566 146.265 15.1297C146.525 15.2811 146.828 15.3893 147.174 15.4542C147.52 15.5191 147.877 15.5515 148.245 15.5515C149.153 15.5515 149.856 15.4001 150.354 15.0972C150.851 14.7944 151.219 14.4375 151.457 14.0265C151.695 13.5939 151.836 13.1612 151.879 12.7286C151.944 12.296 151.976 11.9499 151.976 11.6903V9.97056Z" fill="white"/>
<path d="M59.7888 32.7985H64.299C64.2341 31.7169 63.9745 30.7868 63.5203 30.0081C63.066 29.2077 62.4712 28.5479 61.7357 28.0288C61.0218 27.488 60.1998 27.0878 59.2697 26.8282C58.3612 26.5686 57.4094 26.4388 56.4143 26.4388C55.0515 26.4388 53.8402 26.666 52.7802 27.1202C51.7203 27.5745 50.8225 28.2126 50.0871 29.0346C49.3516 29.835 48.7892 30.7976 48.3998 31.9224C48.0321 33.0257 47.8482 34.2262 47.8482 35.5241C47.8482 36.7787 48.0537 37.936 48.4647 38.996C48.8757 40.0343 49.4489 40.932 50.1844 41.6891C50.9199 42.4462 51.8068 43.0411 52.8451 43.4737C53.905 43.8847 55.0623 44.0902 56.317 44.0902C58.545 44.0902 60.3729 43.5062 61.8006 42.3381C63.2283 41.1699 64.0935 39.4719 64.3964 37.2438H59.9511C59.7997 38.2821 59.4211 39.1149 58.8154 39.7423C58.2314 40.3479 57.3877 40.6508 56.2845 40.6508C55.5707 40.6508 54.965 40.4886 54.4675 40.1641C53.9699 39.8396 53.5698 39.4286 53.2669 38.9311C52.9857 38.4119 52.7802 37.8387 52.6504 37.2114C52.5206 36.5841 52.4557 35.9676 52.4557 35.3619C52.4557 34.7346 52.5206 34.1072 52.6504 33.4799C52.7802 32.831 52.9965 32.2469 53.2994 31.7278C53.6238 31.187 54.0348 30.7543 54.5324 30.4299C55.0299 30.0838 55.6464 29.9107 56.3819 29.9107C58.3503 29.9107 59.486 30.8733 59.7888 32.7985Z" fill="white"/>
<path d="M64.8577 32.0522C64.9226 30.9707 65.193 30.0729 65.6689 29.3591C66.1448 28.6453 66.7505 28.072 67.486 27.6394C68.2214 27.2068 69.0434 26.9039 69.952 26.7309C70.8821 26.5362 71.8123 26.4388 72.7424 26.4388C73.5861 26.4388 74.4405 26.5037 75.3058 26.6335C76.171 26.7417 76.9606 26.9688 77.6744 27.3149C78.3883 27.661 78.9723 28.1477 79.4266 28.7751C79.8809 29.3807 80.108 30.1919 80.108 31.2086V39.9369C80.108 40.6941 80.1512 41.4187 80.2378 42.1109C80.3243 42.8031 80.4757 43.3223 80.692 43.6684H76.0196C75.9331 43.4088 75.8574 43.1492 75.7925 42.8897C75.7492 42.6084 75.7168 42.3272 75.6951 42.046C74.9597 42.8031 74.0944 43.3331 73.0994 43.6359C72.1043 43.9388 71.0876 44.0902 70.0493 44.0902C69.2489 44.0902 68.5026 43.9929 67.8104 43.7982C67.1182 43.6035 66.5125 43.3007 65.9934 42.8897C65.4742 42.4787 65.0632 41.9595 64.7604 41.3322C64.4792 40.7049 64.3386 39.9586 64.3386 39.0933C64.3386 38.1415 64.5008 37.3628 64.8253 36.7571C65.1714 36.1298 65.604 35.6323 66.1232 35.2645C66.664 34.8968 67.2696 34.6264 67.9402 34.4533C68.6324 34.2587 69.3246 34.1072 70.0169 33.9991C70.7091 33.8909 71.3905 33.8044 72.061 33.7395C72.7316 33.6746 73.3265 33.5773 73.8456 33.4475C74.3648 33.3177 74.7758 33.1338 75.0786 32.8959C75.3815 32.6363 75.5221 32.2686 75.5005 31.7927C75.5005 31.2951 75.4139 30.9058 75.2409 30.6246C75.0895 30.3217 74.8731 30.0946 74.5919 29.9432C74.3324 29.7701 74.0187 29.6619 73.651 29.6187C73.3049 29.5538 72.9263 29.5213 72.5153 29.5213C71.6068 29.5213 70.8929 29.716 70.3738 30.1054C69.8546 30.4948 69.5518 31.1437 69.4652 32.0522H64.8577ZM75.5005 35.4592C75.3058 35.6323 75.057 35.7729 74.7542 35.881C74.473 35.9676 74.1593 36.0433 73.8132 36.1082C73.4887 36.1731 73.1426 36.2271 72.7749 36.2704C72.4071 36.3137 72.0394 36.3677 71.6717 36.4326C71.3256 36.4975 70.9795 36.5841 70.6334 36.6922C70.3089 36.8004 70.0169 36.9518 69.7573 37.1465C69.5193 37.3195 69.3246 37.5467 69.1732 37.8279C69.0218 38.1091 68.9461 38.466 68.9461 38.8986C68.9461 39.3096 69.0218 39.6557 69.1732 39.9369C69.3246 40.2182 69.5301 40.4453 69.7897 40.6183C70.0493 40.7698 70.3521 40.8779 70.6982 40.9428C71.0444 41.0077 71.4013 41.0402 71.769 41.0402C72.6775 41.0402 73.3806 40.8887 73.8781 40.5859C74.3756 40.2831 74.7434 39.9261 74.9813 39.5151C75.2192 39.0825 75.3599 38.6499 75.4031 38.2172C75.468 37.7846 75.5005 37.4385 75.5005 37.1789V35.4592Z" fill="white"/>
<path d="M90.2062 40.6508C89.4707 40.6508 88.8434 40.4994 88.3243 40.1965C87.8051 39.8937 87.3833 39.5043 87.0588 39.0284C86.756 38.5309 86.5288 37.9577 86.3774 37.3087C86.2476 36.6598 86.1827 36 86.1827 35.3294C86.1827 34.6372 86.2476 33.9666 86.3774 33.3177C86.5072 32.6687 86.7235 32.0955 87.0264 31.598C87.3508 31.1004 87.7618 30.7003 88.2594 30.3974C88.7785 30.0729 89.4167 29.9107 90.1738 29.9107C90.9092 29.9107 91.5257 30.0729 92.0233 30.3974C92.5424 30.7003 92.9642 31.1113 93.2887 31.6304C93.6132 32.1279 93.8403 32.7012 93.9701 33.3501C94.1215 33.9991 94.1972 34.6588 94.1972 35.3294C94.1972 36 94.1323 36.6598 94.0026 37.3087C93.8728 37.9577 93.6456 38.5309 93.3212 39.0284C93.0183 39.5043 92.6073 39.8937 92.0882 40.1965C91.5906 40.4994 90.9633 40.6508 90.2062 40.6508ZM81.7374 26.8931V49.5414H86.345V41.5918H86.4099C86.9723 42.4138 87.6861 43.0411 88.5514 43.4737C89.4383 43.8847 90.4009 44.0902 91.4392 44.0902C92.6722 44.0902 93.743 43.8523 94.6515 43.3764C95.5817 42.9005 96.3496 42.2623 96.9553 41.462C97.5826 40.6616 98.0477 39.7423 98.3505 38.7039C98.6533 37.6656 98.8048 36.5841 98.8048 35.4592C98.8048 34.2695 98.6533 33.1338 98.3505 32.0522C98.0477 30.949 97.5826 29.9864 96.9553 29.1644C96.3279 28.3424 95.5384 27.6827 94.5866 27.1851C93.6348 26.6876 92.4992 26.4388 91.1796 26.4388C90.1413 26.4388 89.1895 26.6443 88.3243 27.0553C87.459 27.4663 86.7452 28.1261 86.1827 29.0346H86.1178V26.8931H81.7374Z" fill="white"/>
<path d="M104.364 24.2973V20.501H99.7564V24.2973H104.364ZM99.7564 26.8931V43.6684H104.364V26.8931H99.7564Z" fill="white"/>
<path d="M111.886 26.8931V21.8638H107.278V26.8931H104.488V29.9756H107.278V39.8721C107.278 40.7157 107.419 41.3971 107.7 41.9162C107.981 42.4354 108.36 42.8356 108.836 43.1168C109.333 43.398 109.896 43.5819 110.523 43.6684C111.172 43.7766 111.853 43.8306 112.567 43.8306C113.021 43.8306 113.486 43.8198 113.962 43.7982C114.438 43.7766 114.871 43.7333 115.26 43.6684V40.0992C115.044 40.1424 114.817 40.1749 114.579 40.1965C114.341 40.2182 114.092 40.229 113.832 40.229C113.054 40.229 112.535 40.0992 112.275 39.8396C112.015 39.58 111.886 39.0609 111.886 38.2821V29.9756H115.26V26.8931H111.886Z" fill="white"/>
<path d="M115.311 32.0522C115.376 30.9707 115.646 30.0729 116.122 29.3591C116.598 28.6453 117.204 28.072 117.939 27.6394C118.675 27.2068 119.497 26.9039 120.405 26.7309C121.335 26.5362 122.265 26.4388 123.196 26.4388C124.039 26.4388 124.894 26.5037 125.759 26.6335C126.624 26.7417 127.414 26.9688 128.128 27.3149C128.841 27.661 129.425 28.1477 129.88 28.7751C130.334 29.3807 130.561 30.1919 130.561 31.2086V39.9369C130.561 40.6941 130.604 41.4187 130.691 42.1109C130.777 42.8031 130.929 43.3223 131.145 43.6684H126.473C126.386 43.4088 126.31 43.1492 126.246 42.8897C126.202 42.6084 126.17 42.3272 126.148 42.046C125.413 42.8031 124.548 43.3331 123.552 43.6359C122.557 43.9388 121.541 44.0902 120.502 44.0902C119.702 44.0902 118.956 43.9929 118.264 43.7982C117.571 43.6035 116.966 43.3007 116.446 42.8897C115.927 42.4787 115.516 41.9595 115.213 41.3322C114.932 40.7049 114.792 39.9586 114.792 39.0933C114.792 38.1415 114.954 37.3628 115.278 36.7571C115.624 36.1298 116.057 35.6323 116.576 35.2645C117.117 34.8968 117.723 34.6264 118.393 34.4533C119.086 34.2587 119.778 34.1072 120.47 33.9991C121.162 33.8909 121.844 33.8044 122.514 33.7395C123.185 33.6746 123.78 33.5773 124.299 33.4475C124.818 33.3177 125.229 33.1338 125.532 32.8959C125.835 32.6363 125.975 32.2686 125.954 31.7927C125.954 31.2951 125.867 30.9058 125.694 30.6246C125.543 30.3217 125.326 30.0946 125.045 29.9432C124.785 29.7701 124.472 29.6619 124.104 29.6187C123.758 29.5538 123.379 29.5213 122.968 29.5213C122.06 29.5213 121.346 29.716 120.827 30.1054C120.308 30.4948 120.005 31.1437 119.918 32.0522H115.311ZM125.954 35.4592C125.759 35.6323 125.51 35.7729 125.207 35.881C124.926 35.9676 124.612 36.0433 124.266 36.1082C123.942 36.1731 123.596 36.2271 123.228 36.2704C122.86 36.3137 122.493 36.3677 122.125 36.4326C121.779 36.4975 121.433 36.5841 121.086 36.6922C120.762 36.8004 120.47 36.9518 120.21 37.1465C119.972 37.3195 119.778 37.5467 119.626 37.8279C119.475 38.1091 119.399 38.466 119.399 38.8986C119.399 39.3096 119.475 39.6557 119.626 39.9369C119.778 40.2182 119.983 40.4453 120.243 40.6183C120.502 40.7698 120.805 40.8779 121.151 40.9428C121.497 41.0077 121.854 41.0402 122.222 41.0402C123.131 41.0402 123.834 40.8887 124.331 40.5859C124.829 40.2831 125.196 39.9261 125.434 39.5151C125.672 39.0825 125.813 38.6499 125.856 38.2172C125.921 37.7846 125.954 37.4385 125.954 37.1789V35.4592Z" fill="white"/>
<path d="M132.32 20.501V43.6684H136.928V20.501H132.32Z" fill="white"/>
</svg>
