<svg width="43" height="43" viewBox="0 0 43 43" fill="none" xmlns="http://www.w3.org/2000/svg">
<g clip-path="url(#clip0_1_6120)">
<path d="M13.659 38.3894C29.3506 38.3894 37.9333 25.389 37.9333 14.1151C37.9333 13.7458 37.9333 13.3783 37.9083 13.0123C39.578 11.8046 41.0193 10.3093 42.1647 8.59625C40.6078 9.28653 38.956 9.739 37.2646 9.93854C39.0457 8.87244 40.3787 7.19544 41.0154 5.21974C39.3407 6.21358 37.5086 6.91393 35.598 7.29056C34.3117 5.92279 32.6104 5.01709 30.7575 4.71361C28.9046 4.41013 27.0034 4.72579 25.3479 5.61175C23.6925 6.4977 22.3752 7.90455 21.5999 9.61459C20.8246 11.3246 20.6345 13.2425 21.059 15.0715C17.6671 14.9014 14.3489 14.0199 11.3198 12.4842C8.29069 10.9486 5.61832 8.79318 3.47619 6.15784C2.38521 8.03599 2.05106 10.2593 2.54179 12.3752C3.03251 14.491 4.3112 16.3403 6.11752 17.5465C4.75976 17.5067 3.43157 17.1404 2.24534 16.4787V16.5868C2.24588 18.5565 2.92773 20.4654 4.17524 21.9897C5.42276 23.514 7.15913 24.5599 9.08985 24.9499C7.83384 25.2925 6.51601 25.3426 5.23763 25.0963C5.78301 26.7913 6.84443 28.2736 8.27351 29.3359C9.70259 30.3981 11.4279 30.9873 13.2082 31.021C11.4393 32.4113 9.4137 33.4393 7.24717 34.0461C5.08064 34.6529 2.81574 34.8265 0.582031 34.5572C4.48358 37.0608 9.02318 38.3888 13.659 38.3828" fill="#1DA1F2"/>
</g>
<defs>
<clipPath id="clip0_1_6120">
<rect width="41.5827" height="41.5827" fill="white" transform="translate(0.582031 0.704102)"/>
</clipPath>
</defs>
</svg>
